<svg id="eeDl1oB7Wxj1" xmlns="http://www.w3.org/2000/svg" xmlns:xlink="http://www.w3.org/1999/xlink" viewBox="0 0 490.273 490.273" shape-rendering="geometricPrecision" text-rendering="geometricPrecision"><g id="eeDl1oB7Wxj2"><g id="eeDl1oB7Wxj3"><g id="eeDl1oB7Wxj4"><path id="eeDl1oB7Wxj5" d="M313.548,152.387L82.748,383.287C76.048,389.987,76.048,400.887,82.748,407.587C86.048,410.887,90.448,412.587,94.848,412.587C99.248,412.587,103.648,410.887,106.948,407.587L337.748,176.787C344.448,170.087,344.448,159.187,337.748,152.487C331.148,145.687,320.248,145.687,313.548,152.387Z" fill="rgba(0,0,0,0.78)" stroke="none" stroke-width="1"/><path id="eeDl1oB7Wxj6" d="M431.148,191.887C435.548,191.887,439.948,190.187,443.248,186.887L468.448,161.687C497.548,132.587,497.548,85.287,468.448,56.287L434.048,21.887C419.948,7.787,401.248,0.087,381.348,0.087C361.448,0.087,342.748,7.887,328.648,21.887L303.448,47.087C296.748,53.787,296.748,64.687,303.448,71.387L419.048,186.987C422.348,190.187,426.748,191.887,431.148,191.887ZM352.948,45.987C360.548,38.387,370.648,34.187,381.448,34.187C392.148,34.187,402.348,38.387,409.948,45.987L444.348,80.387C460.048,96.087,460.048,121.587,444.348,137.287L431.148,150.487L339.748,59.087L352.948,45.987Z" fill="rgba(0,0,0,0.78)" stroke="none" stroke-width="1"/><path id="eeDl1oB7Wxj7" d="M162.848,467.187L406.348,223.687C413.048,216.987,413.048,206.087,406.348,199.387C399.648,192.687,388.748,192.687,382.048,199.387L142.748,438.887L37.148,453.087L51.348,347.487L279.948,118.887C286.648,112.187,286.648,101.287,279.948,94.587C273.248,87.887,262.348,87.887,255.648,94.587L23.048,327.387C20.348,330.087,18.648,333.487,18.148,337.187L0.148,470.787C-0.552,476.087,1.248,481.387,5.048,485.187C8.248,488.387,12.648,490.187,17.148,490.187C17.948,490.187,18.648,490.087,19.448,489.987L153.048,471.987C156.748,471.587,160.248,469.887,162.848,467.187Z" fill="rgba(0,0,0,0.78)" stroke="none" stroke-width="1"/></g></g></g></svg>