<svg id="eg9CqKXWGa71" xmlns="http://www.w3.org/2000/svg" xmlns:xlink="http://www.w3.org/1999/xlink" viewBox="0 0 490.273 490.273" shape-rendering="geometricPrecision" text-rendering="geometricPrecision"><g id="eg9CqKXWGa72"><g id="eg9CqKXWGa73"><g id="eg9CqKXWGa74"><g id="eg9CqKXWGa75" transform="matrix(2.78172 0 0 2.78172 52.3845 -84.898)"><path id="eg9CqKXWGa76" d="M35.197678,17.276968C33.172992,24.002924,28.766322,54.562158,24.836048,81.173549L24.359652,83.951661C35.435877,82.928146,47.583995,82.78193,57.469228,83.513012L60.923105,61.434331C63.662386,43.303493,65.567973,32.629694,66.639866,26.342387C67.59266,19.908864,71.522933,16.692103,71.284735,19.323998C71.284735,21.809678,70.212842,27.073469,66.401668,49.737016C65.091577,57.486487,63.185989,69.914884,61.399502,83.805445C62.114097,83.805445,62.709593,83.951661,63.424188,83.951661C64.972477,84.097878,69.855544,84.682743,72.475727,86.291124C74.738611,87.899505,68.188156,87.022206,63.185989,86.437341C62.471394,86.437341,61.756799,86.291124,61.042204,86.291124L61.042204,86.729774C57.469228,112.902515,53.658054,128.25524,52.586161,144.192831L52.228863,148.286891C53.419855,153.696899,53.896252,156.328795,53.658054,158.375825C53.658054,160.276639,51.633367,162.616102,50.204177,162.177452C49.370483,162.031236,48.536788,162.177452,48.894086,160.715288C49.013185,159.837989,49.608681,154.135549,49.965979,148.725541L49.608681,147.11716C46.7503,131.618218,33.887587,119.920904,20.310279,110.855485C18.285593,125.038479,17.332799,133.226599,18.166493,136.589577C19.238386,142.730667,15.546311,140.97607,15.546311,136.88201C15.308113,129.717405,15.66541,122.406583,17.2137,108.954671C10.782343,104.860611,4.231888,101.351417,-1.246675,98.280872C-4.93875,96.087625,-8.154429,91.262483,5.065582,87.314639C9.353153,86.144908,14.712617,85.121393,20.548477,84.390311C20.548477,83.951661,20.667577,83.366796,20.786676,82.928146L29.361818,25.757521C30.314611,19.616431,32.458397,15.229938,34.363984,13.036692C36.38867,10.843445,36.269571,13.767774,35.197678,17.276968ZM57.11193,86.144908L57.11193,85.852475C45.678408,85.121393,34.006687,86.144908,23.883255,87.607072L20.667577,107.931156C33.768488,116.704142,45.678408,127.962807,50.442376,141.122286C51.633367,126.793076,54.134451,108.516022,57.11193,86.144908ZM0.063416,96.380058C5.661078,99.15817,11.735137,102.228715,17.570998,105.884126C18.166493,100.912767,19.000188,95.210327,19.952981,88.338154C14.950815,89.215453,10.305947,90.092751,6.613872,91.116266C-3.747759,94.040595,-1.127576,95.941409,0.063416,96.380058Z" transform="matrix(1.183538 0 0 1.153829 24.0112 19.5058)" fill="rgb(0,0,0)" stroke="none" stroke-width="1"/></g></g></g></g><path id="eg9CqKXWGa77" d="" fill="none" stroke="rgb(63,87,135)" stroke-width="0.980546"/></svg>