<svg width="209.99999999999997" height="208.13557023110502" viewBox="0 -18 209.99999999999997 208.13557023110502" class="css-1j8o68f"><defs id="SvgjsDefs2005"></defs><g id="SvgjsG2006" featurekey="monogramFeature-0" transform="matrix(2.781719063100957,0,0,2.781719063100957,52.38446572546829,-84.89803336229224)" fill="#111111"><path d="M15.9 26.1 c-1.02 2.76 -3.24 15.3 -5.22 26.22 l-0.24 1.14 c5.58 -0.42 11.7 -0.48 16.68 -0.18 l1.74 -9.06 c1.38 -7.44 2.34 -11.82 2.88 -14.4 c0.48 -2.64 2.46 -3.96 2.34 -2.88 c0 1.02 -0.54 3.18 -2.46 12.48 c-0.66 3.18 -1.62 8.28 -2.52 13.98 c0.36 0 0.66 0.06 1.02 0.06 c0.78 0.06 3.24 0.3 4.56 0.96 c1.14 0.66 -2.16 0.3 -4.68 0.06 c-0.36 0 -0.72 -0.06 -1.08 -0.06 l0 0.18 c-1.8 10.74 -3.72 17.04 -4.26 23.58 l-0.18 1.68 c0.6 2.22 0.84 3.3 0.72 4.14 c0 0.78 -1.02 1.74 -1.74 1.56 c-0.42 -0.06 -0.84 0 -0.66 -0.6 c0.06 -0.36 0.36 -2.7 0.54 -4.92 l-0.18 -0.66 c-1.44 -6.36 -7.92 -11.16 -14.76 -14.88 c-1.02 5.82 -1.5 9.18 -1.08 10.56 c0.54 2.52 -1.32 1.8 -1.32 0.12 c-0.12 -2.94 0.06 -5.94 0.84 -11.46 c-3.24 -1.68 -6.54 -3.12 -9.3 -4.38 c-1.86 -0.9 -3.48 -2.88 3.18 -4.5 c2.16 -0.48 4.86 -0.9 7.8 -1.2 c0 -0.18 0.06 -0.42 0.12 -0.6 l4.32 -23.46 c0.48 -2.52 1.56 -4.32 2.52 -5.22 c1.02 -0.9 0.96 0.3 0.42 1.74 z M26.94 54.36 l0 -0.12 c-5.76 -0.3 -11.64 0.12 -16.74 0.72 l-1.62 8.34 c6.6 3.6 12.6 8.22 15 13.62 c0.6 -5.88 1.86 -13.38 3.36 -22.56 z M-1.8 58.56 c2.82 1.14 5.88 2.4 8.82 3.9 c0.3 -2.04 0.72 -4.38 1.2 -7.2 c-2.52 0.36 -4.86 0.72 -6.72 1.14 c-5.22 1.2 -3.9 1.98 -3.3 2.16 z"></path></g><g id="SvgjsG2007" featurekey="nameFeature-0" transform="matrix(0.571277144730052,0,0,0.571277144730052,-2.3989062565377477,165.6108122149542)" fill="#111111"><path d="M21.699 12.383 l3.8867 0 l0 27.617 l-3.8867 0 l0 -12.109 l-13.574 0 l0 12.109 l-3.9258 0 l0 -27.617 l3.9258 0 l0 12.051 l13.574 0 l0 -12.051 z M39.7802546875 40 l0 -27.617 l3.8867 0 l0 27.617 l-3.8867 0 z M57.861309375 40 l0 -27.617 l9.1016 0 c8.4961 0 12.813 5.7031 12.813 13.789 c0 8.1445 -4.3164 13.828 -12.813 13.828 l-9.1016 0 z M61.748009375 36.4844 l5.0586 0 c6.0352 0 8.9063 -4.0039 8.9063 -10.313 c0 -6.2695 -2.8711 -10.293 -8.9063 -10.293 l-5.0586 0 l0 20.605 z M107.1535703125 15.879000000000001 l-11.055 0 l0 8.5938 l9.7461 0 l0 3.4766 l-9.7461 0 l0 8.5352 l11.055 0 l0 3.5156 l-15.02 0 l0 -27.617 l15.02 0 l0 3.4961 z M121.7188 40.39063 c-1.3086 0 -2.4219 -1.0742 -2.4219 -2.4219 c0 -1.3086 1.1133 -2.4414 2.4219 -2.4414 c1.3281 0 2.4414 1.1328 2.4414 2.4414 c0 1.3477 -1.1133 2.4219 -2.4414 2.4219 z M153.3349609375 15.879000000000001 l-11.211 0 l0 8.5742 l9.7461 0 l0 3.4961 l-9.7461 0 l0 12.051 l-3.9648 0 l0 -27.617 l15.176 0 l0 3.4961 z M164.833965625 40 l0 -27.617 l3.8867 0 l0 27.617 l-3.8867 0 z M201.5288203125 12.383 l3.8672 0 l0 27.617 l-4.1992 0 l-14.434 -21.914 l0 21.914 l-3.8477 0 l0 -27.617 l4.1602 0 l14.453 21.816 l0 -21.816 z M237.44109375 40 l-2.3047 -6.4453 l-12.344 0 l-2.3047 6.4453 l-4.043 0 l10.176 -27.617 l4.6875 0 l10.176 27.617 l-4.043 0 z M224.00389375 30.1562 l9.9219 0 l-4.9609 -13.926 z M271.1479609375 12.383 l3.8672 0 l0 27.617 l-4.1992 0 l-14.434 -21.914 l0 21.914 l-3.8477 0 l0 -27.617 l4.1602 0 l14.453 21.816 l0 -21.816 z M301.084234375 40.37109 c-7.832 0 -13.809 -5.3711 -13.809 -14.199 c0 -8.7891 5.9766 -14.16 13.809 -14.16 c5.5859 0 10.215 2.7734 12.344 7.5195 l-3.5938 1.4258 c-1.6016 -3.3789 -4.8633 -5.2734 -8.75 -5.2734 c-5.5469 0 -9.9414 3.8281 -9.9414 10.488 c0 6.6992 4.3945 10.527 9.9414 10.527 c3.8867 0 7.1484 -1.8945 8.75 -5.2734 l3.5938 1.4453 c-2.1289 4.7266 -6.7578 7.5 -12.344 7.5 z M340.0246640625 15.879000000000001 l-11.055 0 l0 8.5938 l9.7461 0 l0 3.4766 l-9.7461 0 l0 8.5352 l11.055 0 l0 3.5156 l-15.02 0 l0 -27.617 l15.02 0 l0 3.4961 z M371.79659375 32.4219 c0 5.2734 -4.1406 7.6758 -9.1602 7.9492 l0 2.5586 l-1.8945 0 l0 -2.5586 c-5.0391 -0.3125 -8.8477 -3.0078 -9.7266 -7.4219 l3.9648 -0.9375 c0.54688 2.8711 2.832 4.6484 5.7617 5 l0 -9.5898 l-0.3125 -0.078125 c-4.2773 -1.1914 -8.5547 -2.5391 -8.5547 -7.5977 c0 -5 4.0234 -7.5781 8.8672 -7.7148 l0 -2.5977 l1.8945 0 l0 2.6563 c4.2383 0.39063 7.832 2.4805 8.7695 6.7188 l-3.7695 0.97656 c-0.58594 -2.6172 -2.5195 -4.0039 -5 -4.3555 l0 8.9844 c4.3359 1.1719 9.1602 2.5781 9.1602 8.0078 z M355.78129375 19.687 c0 2.4219 2.1875 3.3984 4.9609 4.1992 l0 -8.5352 c-2.5586 0.15625 -4.9609 1.4063 -4.9609 4.3359 z M362.63659375 37.0508 c2.8516 -0.19531 5.2148 -1.4648 5.1563 -4.4922 c-0.039063 -2.6172 -2.3047 -3.7305 -5.1563 -4.5898 l0 9.082 z"></path></g></svg>